<svg xmlns="http://www.w3.org/2000/svg" xml:space="preserve" viewBox="-1.55 -5.05 668.61 155.21"><path d="M433.4 41.9h-54.6s-9.9 0-13.5 7.2v-7.2h-24.4v101.6h24.4V78.1c0-8 6.5-14.5 14.5-14.5H426c8 0 14.5 6.5 14.5 14.5v65.4h23.9V70.8c.1 0-1.7-28.9-31-28.9M5 12.6h24.4v130.9H5zm286.6 29.2h24.5v101.8h-24.5zm197.6.1h24.4v101.6h-24.4zm-342.6 0H92s-9.9 0-13.5 7.2v-7.2H54.1v101.6h24.4V78.1c0-8 6.5-14.5 14.5-14.5h46.3c8 0 14.5 6.5 14.5 14.5v65.4h23.9V70.8c.1 0-1.7-28.9-31.1-28.9m145-40.4h24.5v21.1h-24.5zm197.6 0h24.4v21.1h-24.4zm171.3 40.4H630l-35.1 35.5-35.1-35.5h-30.4l50.2 50.9-50.2 50.7h30.8l34.7-35.2 34.8 35.2h30.8l-50.3-50.7zM237.3 25.1a8 8 0 0 1 5.9-2.5h27.3V1.5h-21.6c-.3.1-3.5-.1-7.8.1h-.4c-9 0-17.5 3.3-22.9 9a26 26 0 0 0-6.9 16.8v14.5h-31.7s8.7 3.2 14.7 21.7h17v79.9H235V63.6h35.4V41.9H235V33l.1-1.8-.1-.5q0-2.6 1.5-4.6z"/></svg>